HIERARCHY
ROOT root
{
	OFFSET 0.000000 0.000000 0.000000
	CHANNELS 6 Xposition Yposition Zposition Zrotation Yrotation Xrotation
	JOINT lhip
	{
		OFFSET 0.058581 -0.082280 -0.017664
		CHANNELS 3 Zrotation Yrotation Xrotation
		JOINT lknee
		{
			OFFSET 0.043451 -0.386469 0.008037
			CHANNELS 3 Zrotation Yrotation Xrotation
			JOINT lankle
			{
				OFFSET -0.014790 -0.426874 -0.037428
				CHANNELS 3 Zrotation Yrotation Xrotation
				JOINT ltoe
				{
					OFFSET 0.041054 -0.060286 0.122042
					CHANNELS 3 Zrotation Yrotation Xrotation
					End Site
					{
						OFFSET 0.000000 0.000000 0.000000
					}
				}
			}
		}
	}
	JOINT rhip
	{
		OFFSET -0.060310 -0.090513 -0.013543
		CHANNELS 3 Zrotation Yrotation Xrotation
		JOINT rknee
		{
			OFFSET -0.043257 -0.383688 -0.004843
			CHANNELS 3 Zrotation Yrotation Xrotation
			JOINT rankle
			{
				OFFSET 0.019056 -0.420046 -0.034562
				CHANNELS 3 Zrotation Yrotation Xrotation
				JOINT rtoe
				{
					OFFSET -0.034840 -0.062106 0.130323
					CHANNELS 3 Zrotation Yrotation Xrotation
					End Site
					{
						OFFSET 0.000000 0.000000 0.000000
					}
				}
			}
		}
	}
	JOINT lowerback
	{
		OFFSET 0.004439 0.124404 -0.038385
		CHANNELS 3 Zrotation Yrotation Xrotation
		JOINT upperback
		{
			OFFSET 0.004488 0.137956 0.026820
			CHANNELS 3 Zrotation Yrotation Xrotation
			JOINT chest
			{
				OFFSET -0.002265 0.056032 0.002855
				CHANNELS 3 Zrotation Yrotation Xrotation
				JOINT lowerneck
				{
					OFFSET -0.013390 0.211636 -0.033468
					CHANNELS 3 Zrotation Yrotation Xrotation
					JOINT upperneck
					{
						OFFSET 0.010113 0.088937 0.050410
						CHANNELS 3 Zrotation Yrotation Xrotation
						End Site
						{
							OFFSET 0.000000 0.000000 0.000000
						}
					}
				}
				JOINT lclavicle
				{
					OFFSET 0.071702 0.114000 -0.018898
					CHANNELS 3 Zrotation Yrotation Xrotation
					JOINT lshoulder
					{
						OFFSET 0.122921 0.045205 -0.019046
						CHANNELS 3 Zrotation Yrotation Xrotation
						JOINT lelbow
						{
							OFFSET 0.255332 -0.015649 -0.022946
							CHANNELS 3 Zrotation Yrotation Xrotation
							JOINT lwrist
							{
								OFFSET 0.265709 0.012698 -0.007375
								CHANNELS 3 Zrotation Yrotation Xrotation
								End Site
								{
									OFFSET 0.000000 0.000000 0.000000
								}
							}
						}
					}
				}
				JOINT rclavicle
				{
					OFFSET -0.082954 0.112472 -0.023707
					CHANNELS 3 Zrotation Yrotation Xrotation
					JOINT rshoulder
					{
						OFFSET -0.113228 0.046853 -0.008472
						CHANNELS 3 Zrotation Yrotation Xrotation
						JOINT relbow
						{
							OFFSET -0.260127 -0.014369 -0.031269
							CHANNELS 3 Zrotation Yrotation Xrotation
							JOINT rwrist
							{
								OFFSET -0.269108 0.006794 -0.006027
								CHANNELS 3 Zrotation Yrotation Xrotation
								End Site
								{
									OFFSET 0.000000 0.000000 0.000000
								}
							}
						}
					}
				}
			}
		}
	}
}
MOTION
Frames: 14
Frame Time: 0.033333
0.157777 -0.353682 0.995481 -4.320076 0.992240 88.536345 2.277175 -7.587955 -24.753322 -8.269323 -2.979164 25.146052 2.018960 6.933825 -4.250844 0.000000 -0.000000 0.000000 -8.065867 -10.648220 7.078176 4.344039 -9.498849 22.998150 6.953243 -8.845681 -10.649975 0.000000 -0.000000 0.000000 0.758920 9.655926 13.958587 0.017052 -0.216544 -4.703401 -0.026536 2.155657 -2.403821 4.108400 -2.410154 -10.925646 0.481124 -6.352104 7.484708 -27.365697 1.314055 -1.864785 -47.477109 -2.876311 3.493912 16.647425 -25.409296 -3.147021 9.863365 -7.206466 -3.974880 24.476461 10.168152 -0.845760 40.002700 21.777644 7.977428 -18.277312 40.884433 6.883419 -4.513245 5.481916 20.854934 
0.151660 -0.339316 0.991565 -6.170312 0.681823 88.621626 3.167559 -7.298479 -26.365488 -8.115956 -1.641797 26.227660 1.351809 7.481537 -4.104416 0.000000 -0.000000 0.000000 -7.832651 -11.054626 7.303882 4.713233 -9.836101 20.074857 5.631722 -8.321850 -14.142492 0.000000 -0.000000 0.000000 0.907453 9.912992 14.246615 -0.195972 -0.220826 -4.883677 -0.074209 2.355349 -2.372356 3.831363 -1.192886 -10.953684 0.553154 -6.103507 8.198074 -27.359468 1.425228 -2.138471 -47.583726 -3.335244 3.596739 16.660520 -27.336204 -3.412072 9.844181 -7.241273 -4.106518 24.678999 10.092007 -0.402522 40.948141 21.157922 8.464145 -16.798115 40.015682 8.525270 -4.508792 5.402454 20.563523 
0.145097 -0.323863 0.988735 -7.863979 0.623821 88.731559 4.257199 -6.729579 -27.820147 -7.869078 -0.881455 26.847934 0.684218 7.678355 -3.583528 0.000000 -0.000000 0.000000 -6.947310 -11.288309 7.313880 4.801312 -9.626334 17.204927 4.331797 -8.313121 -16.522172 0.000000 -0.000000 0.000000 1.102649 9.964410 14.833226 -0.302094 -0.360726 -5.252663 -0.061831 2.504326 -2.454478 3.575898 -0.014633 -10.949022 0.694689 -5.588753 8.673486 -27.100001 1.651302 -2.250224 -48.036333 -3.875888 3.713619 16.717242 -29.182947 -3.304084 9.923521 -7.283227 -4.960350 24.902778 9.973062 -0.021141 41.845640 20.818494 8.900121 -15.639966 39.016226 9.713693 -4.376442 5.465339 20.023130 
0.137900 -0.308177 0.986859 -9.390672 0.720595 88.808553 5.404453 -6.091679 -29.003692 -7.452422 -0.445821 27.133766 0.191029 7.875635 -2.630053 0.000000 -0.000000 0.000000 -5.783388 -11.401897 7.119541 4.840378 -8.681798 14.706734 2.989005 -7.942411 -18.058364 0.000000 -0.000000 0.000000 1.086523 9.917714 15.426377 -0.204270 -0.588002 -5.636519 0.160167 2.547953 -2.449506 3.256442 1.219278 -10.985383 0.975239 -5.019382 9.058253 -26.737416 1.545289 -1.946911 -48.591383 -4.264905 3.789380 16.843139 -30.996572 -3.229296 10.786901 -6.855996 -5.827583 24.882926 9.939442 0.381484 42.693951 20.446745 9.186177 -14.453034 38.340250 11.082790 -5.311297 5.513818 19.388794 
0.130312 -0.292821 0.986327 -10.722517 1.018088 88.681300 6.551590 -5.298289 -29.507466 -7.053190 -0.685200 26.841316 -0.263300 8.075786 -1.894414 0.000000 -0.000000 0.000000 -4.720752 -11.423958 7.017481 5.214337 -7.549339 13.014614 2.055815 -7.401970 -18.447663 0.000000 -0.000000 0.000000 1.092790 9.747522 16.108903 -0.006320 -0.806673 -5.811748 0.503956 2.416750 -2.340946 3.003636 2.260373 -11.078512 1.209981 -4.131289 8.962838 -26.532421 1.291757 -1.890124 -48.954430 -4.498474 4.026427 16.885311 -32.315711 -3.047452 11.112109 -6.789682 -6.492122 24.840705 10.000267 0.534579 43.228607 19.819175 9.557204 -13.271898 38.070719 12.216851 -5.450048 5.448071 18.902537 
0.122662 -0.278576 0.987275 -11.687478 1.506083 88.582957 7.770640 -4.486070 -29.638177 -6.687815 -1.215032 25.967430 -0.653999 8.081989 -0.913498 0.000000 -0.000000 0.000000 -3.604451 -11.138007 6.850354 5.822455 -7.117614 11.514270 1.704729 -6.623125 -17.708357 0.000000 -0.000000 0.000000 0.975978 9.374543 16.646710 0.411720 -1.016676 -5.811388 0.931414 2.263375 -2.455630 2.786746 3.385533 -11.234879 1.406621 -3.298557 9.093177 -26.291911 1.017380 -1.683187 -49.458394 -4.718073 4.211670 17.004282 -33.080299 -2.604023 10.239267 -6.520182 -6.453848 24.775197 9.772628 0.762686 43.723073 19.029050 9.690077 -12.376917 37.880372 12.947863 -5.079727 5.476573 17.894734 
0.115694 -0.265154 0.988387 -12.363134 1.894725 88.564238 8.760383 -4.147552 -29.821264 -6.162915 -1.642849 25.050633 -1.061185 7.969065 0.515308 0.000000 -0.000000 0.000000 -2.607601 -10.477778 6.868677 6.628020 -7.017888 9.536216 1.497778 -6.101771 -16.758479 0.000000 -0.000000 0.000000 0.748875 9.057987 17.057700 0.825798 -1.293132 -5.867687 1.324735 2.143725 -2.524012 2.502567 4.221856 -11.078085 1.817293 -2.732247 8.833102 -25.873474 0.492615 -1.303704 -50.033549 -5.169882 4.615258 16.982585 -33.052416 -1.921941 9.961030 -6.423610 -5.932483 24.609497 9.491606 1.066405 44.271713 17.887041 9.687085 -12.018678 37.587396 13.045522 -5.531966 5.699686 16.648754 
0.109234 -0.253411 0.988843 -12.725147 2.082462 88.381282 9.346871 -4.072826 -29.759708 -5.552181 -2.173256 24.108398 -1.654601 7.871552 1.814319 0.000000 -0.000000 0.000000 -1.940304 -10.321986 6.591503 7.157439 -7.213451 8.951820 1.346523 -5.711034 -16.232968 0.000000 -0.000000 0.000000 0.407363 8.787651 17.459951 1.147020 -1.596745 -6.175960 1.714293 1.990870 -2.307510 2.209507 4.772751 -10.587830 2.224052 -2.264529 8.689126 -25.304181 -0.162355 -0.909290 -50.678224 -5.502552 5.264819 16.575284 -32.787196 -1.214277 10.833475 -6.267060 -6.391758 24.227027 9.047580 1.232910 45.008514 16.522630 9.717195 -11.703361 36.981548 13.137130 -6.373384 5.468751 15.208453 
0.103014 -0.242428 0.988609 -13.179168 2.208672 88.079828 9.900707 -3.501615 -29.811438 -5.004222 -2.168265 23.734477 -2.119972 7.681213 3.063620 0.000000 -0.000000 0.000000 -1.541075 -11.115966 6.070330 7.488667 -6.843909 9.310067 1.187273 -4.861117 -15.975850 0.000000 -0.000000 0.000000 0.272449 8.664999 18.044992 1.239595 -1.759273 -6.561819 1.930168 1.864020 -1.997004 1.941279 5.078630 -10.075361 2.538062 -1.725386 8.596319 -25.096347 -0.673836 -0.931486 -50.778913 -5.964814 5.692186 15.848302 -32.434248 -0.433578 11.236601 -5.985924 -6.795705 23.861178 8.579076 1.168545 45.722957 15.059741 9.839522 -11.366133 35.956552 13.444213 -6.688818 5.193015 14.794725 
0.098397 -0.233504 0.988159 -13.307702 2.003620 87.354205 10.165885 -3.407796 -29.513885 -4.571724 -1.381343 23.420970 -2.829762 7.847173 4.735396 0.000000 -0.000000 0.000000 -0.963894 -9.671700 6.509898 7.540914 -6.939889 8.809693 0.805255 -5.500327 -15.743718 0.000000 -0.000000 0.000000 0.076319 8.315216 19.313349 1.187875 -1.737474 -7.186560 2.033223 1.708547 -1.789704 1.662359 5.313594 -9.960784 2.839663 -1.243505 8.982067 -25.296351 -1.160902 -0.915074 -50.734011 -6.405229 5.753361 15.873156 -32.120079 -0.758137 8.788216 -6.382463 -6.136963 23.688913 8.082495 1.013132 46.020050 13.065393 10.135207 -11.427605 35.262538 13.885437 -4.409008 4.408207 14.811271 
0.093639 -0.225700 0.987240 -13.712718 1.976674 87.189305 11.052113 -2.482058 -30.206730 -4.794775 0.948550 23.717319 -3.271798 8.280078 5.781416 0.000000 -0.000000 0.000000 -1.042315 -10.577562 5.880812 7.967728 -6.865718 9.589600 0.658718 -4.413938 -16.000571 0.000000 -0.000000 0.000000 -0.002338 8.428332 19.486624 1.206996 -1.798737 -7.173342 2.029370 1.667245 -1.767451 1.297656 5.507754 -9.947274 3.053250 -1.146733 9.388011 -25.474623 -1.479176 -0.990151 -50.720429 -6.948091 5.866209 15.521363 -31.436374 -0.559407 9.091712 -6.397669 -5.761415 23.791885 7.441716 1.287196 46.014785 11.602391 9.803686 -11.043317 34.172357 14.324036 -4.473104 4.344479 14.579723 
0.089721 -0.220699 0.986316 -13.796771 1.829013 86.861150 11.389289 -1.659989 -30.509195 -5.248921 3.021275 23.803387 -3.281984 8.840590 6.200964 0.000000 -0.000000 0.000000 -0.738297 -10.034769 6.178587 8.042583 -7.066782 9.026720 0.377825 -4.635162 -16.127559 0.000000 -0.000000 0.000000 -0.184826 8.372972 19.764716 1.193772 -1.812310 -7.170033 2.047128 1.626379 -1.770789 0.854690 5.497898 -9.760965 3.245739 -0.937819 9.285356 -25.614328 -1.715934 -0.956771 -50.931487 -7.397874 5.874526 15.260604 -30.882728 -0.508082 9.760830 -6.644311 -5.172604 23.654778 6.751403 1.400730 46.401424 9.949308 9.651568 -10.709811 32.898609 14.368109 -4.972487 3.871416 13.849287 
0.086111 -0.217736 0.985758 -13.575178 1.794644 86.690790 11.355426 -0.942306 -30.577382 -5.540608 3.876055 23.472828 -4.016868 9.020155 4.693410 0.000000 -0.000000 0.000000 -0.584927 -10.347813 6.876104 8.329952 -6.842601 7.853306 0.591441 -4.354207 -15.663322 0.000000 -0.000000 0.000000 -0.384449 8.343638 19.730555 1.310867 -2.020638 -7.279587 2.142385 1.603564 -1.656051 0.610046 5.540254 -9.656466 3.322367 -0.847444 9.441471 -25.543350 -1.762188 -0.973587 -51.433742 -7.757051 5.911058 14.478504 -30.016624 -0.109407 10.428389 -6.845284 -5.103042 23.589054 6.014969 1.665760 46.714786 8.451577 9.421197 -10.210222 31.792726 14.262775 -6.155200 4.366076 13.855948 
0.083365 -0.215969 0.985384 -13.124516 1.659419 86.897384 10.919637 -1.152567 -30.335766 -6.838160 1.836107 21.533092 -4.370556 6.868192 3.140394 0.000000 -0.000000 0.000000 -0.513200 -10.578047 7.254560 8.515213 -6.954853 6.585160 0.874048 -4.407473 -15.289910 0.000000 -0.000000 0.000000 -0.751465 8.164865 19.446059 1.413860 -2.246224 -7.533665 2.223706 1.518728 -1.703362 0.595758 5.626149 -9.315102 3.348993 -0.685337 9.345562 -25.457198 -1.487936 -0.816609 -52.019160 -7.848486 6.022171 13.927618 -29.423100 0.711916 10.225299 -6.963051 -5.194385 23.270420 5.207098 1.809199 47.456716 6.985845 9.409727 -9.974559 30.450418 14.562859 -5.483250 3.901395 13.464966 
